<?xml version="1.0" standalone="no"?>
<!DOCTYPE svg PUBLIC "-//W3C//DTD SVG 20010904//EN"
 "http://www.w3.org/TR/2001/REC-SVG-20010904/DTD/svg10.dtd">
<svg version="1.0" xmlns="http://www.w3.org/2000/svg"
 width="1080.000000pt" height="1080.000000pt" viewBox="0 0 1080.000000 1080.000000"
 preserveAspectRatio="xMidYMid meet">
<metadata>
Created by potrace 1.14, written by Peter Selinger 2001-2017
</metadata>
<g transform="translate(0.000000,1080.000000) scale(0.100000,-0.100000)"
fill="#000000" stroke="none">
<path d="M5465 9999 c-71 -3 -729 -6 -1460 -7 -732 -1 -1344 -6 -1360 -11 -25
-6 -792 -6 -986 1 -58 2 -96 -14 -151 -65 -33 -30 -42 -50 -57 -117 -18 -85
-11 -9039 8 -9095 46 -140 260 -181 377 -73 29 26 48 55 55 82 9 31 12 1136
12 4414 l1 4372 40 1 c151 4 2408 11 3731 12 l1590 2 100 -23 c55 -12 109 -24
121 -27 12 -3 40 -12 64 -20 23 -8 55 -15 71 -15 16 0 29 -4 29 -10 0 -5 7
-10 16 -10 8 0 52 -17 97 -38 45 -22 101 -47 123 -57 23 -9 68 -35 100 -56 33
-21 64 -39 69 -39 6 0 32 -18 59 -40 26 -22 52 -40 56 -40 8 0 79 -63 168
-147 25 -24 48 -43 53 -43 4 0 23 -21 41 -47 17 -27 41 -55 53 -65 29 -22 225
-318 225 -339 0 -6 7 -23 15 -37 73 -134 155 -392 177 -557 21 -160 11 -620
-15 -661 -3 -6 -8 -21 -11 -35 -3 -13 -10 -42 -15 -64 -5 -22 -23 -77 -39
-122 -17 -46 -29 -83 -27 -83 4 0 -16 -47 -75 -175 -17 -38 -54 -103 -81 -142
-27 -40 -47 -73 -44 -73 3 0 1 -6 -5 -12 -6 -7 -30 -38 -53 -69 -94 -127 -167
-206 -277 -302 -70 -61 -78 -67 -85 -67 -3 0 -22 -16 -42 -35 -20 -19 -41 -35
-47 -35 -6 0 -36 -19 -66 -41 -47 -35 -149 -91 -172 -93 -3 -1 -10 -5 -15 -9
-11 -12 -65 -35 -138 -59 -32 -11 -77 -28 -100 -38 -46 -20 -66 -28 -115 -43
-35 -11 -484 -21 -1375 -32 -242 -3 -458 -9 -480 -14 -22 -5 -231 -10 -465
-11 -234 -1 -443 -5 -465 -9 -22 -4 -189 -8 -371 -10 l-331 -2 0 93 c-1 51 -4
557 -8 1123 -6 943 -9 1037 -25 1107 -20 87 -44 122 -110 164 -40 26 -54 29
-120 28 -56 0 -85 -6 -116 -21 -51 -27 -101 -86 -114 -134 -11 -40 -9 -473 9
-1854 9 -699 15 -825 47 -873 29 -45 87 -91 127 -102 25 -7 164 -9 405 -6 652
8 1013 15 1187 21 213 9 511 13 1110 17 488 3 622 1 690 -13 22 -4 67 -13 100
-19 33 -6 89 -19 125 -29 66 -19 149 -39 184 -47 11 -2 51 -19 90 -38 39 -19
82 -38 96 -42 31 -8 144 -61 154 -71 4 -5 11 -8 14 -8 15 -1 128 -61 147 -79
11 -10 34 -24 50 -31 17 -7 44 -25 60 -40 17 -14 50 -40 75 -58 70 -49 194
-169 266 -257 16 -19 36 -40 44 -47 8 -7 11 -13 5 -13 -6 0 -6 -3 1 -8 6 -4
34 -42 63 -84 29 -43 57 -80 62 -84 5 -3 9 -13 9 -22 0 -16 48 -94 63 -100 4
-2 7 -12 7 -22 0 -10 5 -22 10 -25 6 -3 10 -15 10 -26 0 -11 9 -37 19 -57 33
-64 53 -115 67 -172 8 -30 17 -62 19 -70 8 -25 53 -231 63 -290 19 -107 6
-422 -22 -550 -3 -14 -9 -41 -12 -60 -4 -19 -10 -39 -14 -45 -4 -5 -15 -46
-24 -90 -10 -44 -24 -93 -31 -110 -7 -16 -22 -50 -33 -75 -11 -25 -25 -63 -32
-85 -7 -22 -16 -42 -20 -45 -4 -3 -28 -44 -53 -91 -25 -48 -68 -117 -94 -153
-26 -37 -58 -80 -70 -96 -11 -17 -37 -46 -57 -66 -20 -20 -36 -41 -36 -47 0
-7 -13 -21 -28 -31 -16 -11 -37 -32 -48 -48 -10 -16 -37 -41 -59 -56 -22 -15
-54 -42 -71 -59 -18 -18 -36 -33 -41 -33 -4 0 -24 -14 -43 -30 -19 -17 -66
-49 -105 -72 -38 -23 -72 -44 -75 -47 -16 -20 -295 -139 -339 -145 -25 -4 -65
-13 -90 -21 -77 -24 -117 -27 -381 -31 -140 -1 -433 -6 -650 -9 -217 -4 -588
-8 -825 -10 -236 -2 -701 -7 -1033 -11 l-602 -7 0 1164 c1 1245 1 1227 -48
1284 -48 56 -91 78 -165 83 -40 2 -90 -1 -112 -7 -63 -17 -134 -95 -147 -160
-11 -60 -9 -2671 2 -2713 14 -48 82 -113 134 -128 28 -7 118 -9 286 -5 135 3
587 7 1005 10 418 3 778 9 800 14 23 5 410 9 889 10 l849 0 81 25 c45 13 98
27 120 31 21 3 62 17 92 30 29 13 55 21 58 17 3 -3 6 0 6 6 0 7 6 12 13 12 6
0 35 12 62 25 28 14 56 25 63 25 8 0 41 16 75 36 106 62 127 74 138 74 6 0 36
20 67 44 32 24 66 47 77 50 11 3 41 25 65 49 25 24 61 54 80 67 19 14 50 39
67 57 18 18 37 33 41 33 5 0 42 37 83 82 41 45 92 101 115 124 38 39 77 90
159 209 18 28 54 79 79 115 25 36 46 71 46 78 0 8 9 27 21 43 23 33 78 150 82
176 2 10 10 29 20 43 9 14 18 35 20 45 2 11 10 34 16 50 21 50 40 116 57 195
9 41 20 82 25 92 10 18 26 109 35 193 3 28 9 72 14 98 13 61 13 431 1 477 -5
19 -12 60 -15 90 -13 137 -96 459 -139 545 -9 17 -30 66 -48 110 -18 44 -48
104 -66 132 -19 29 -33 54 -33 55 4 10 -23 61 -53 100 -20 26 -42 59 -50 75
-8 15 -25 39 -37 53 -12 14 -32 41 -45 60 -12 19 -37 51 -56 70 -19 19 -59 64
-89 99 -30 35 -64 71 -74 80 -11 9 -42 37 -69 64 -28 26 -54 47 -58 47 -4 0
-24 16 -45 35 -22 19 -64 52 -94 72 -30 21 -78 55 -106 76 -28 20 -54 37 -58
37 -4 0 -42 21 -84 46 -42 26 -87 50 -99 53 -12 3 -23 11 -24 16 -1 11 5 14
66 41 22 9 65 34 95 54 30 20 71 45 91 54 20 9 45 25 55 35 11 9 45 35 76 57
141 97 335 276 433 399 22 28 50 62 63 77 36 40 142 196 142 208 0 5 5 10 10
10 6 0 10 7 10 15 0 9 9 26 21 38 20 21 77 133 115 227 10 25 25 56 33 69 8
13 16 29 17 35 2 6 7 25 13 41 18 53 70 228 81 275 51 211 51 211 52 555 1
329 -3 392 -38 518 -7 26 -11 47 -9 47 3 0 -2 17 -9 38 -20 53 -53 161 -61
202 -7 35 -18 60 -69 160 -16 30 -34 75 -42 100 -7 25 -23 55 -34 67 -11 12
-20 26 -20 31 0 4 -13 29 -30 55 -16 26 -30 54 -30 62 0 7 -4 15 -9 17 -8 3
-78 98 -128 173 -14 22 -43 55 -64 73 -20 18 -42 46 -49 62 -7 17 -16 30 -20
30 -5 0 -37 28 -73 63 -80 77 -172 158 -193 170 -9 5 -35 27 -58 48 -22 22
-56 46 -75 55 -19 9 -44 25 -55 35 -11 11 -23 19 -27 19 -4 0 -14 6 -21 13
-18 16 -55 37 -67 37 -5 0 -38 17 -72 38 -66 40 -111 62 -164 80 -16 6 -64 25
-105 42 -96 40 -174 66 -225 73 -22 3 -76 15 -120 25 -112 27 -204 41 -320 48
-128 8 -1568 11 -1740 3z"/>
</g>
</svg>
